<svg width="3128" height="1964" xmlns="http://www.w3.org/2000/svg" xmlns:xlink="http://www.w3.org/1999/xlink" xml:space="preserve" overflow="hidden"><defs><clipPath id="clip0"><rect x="628" y="286" width="3128" height="1964"/></clipPath><clipPath id="clip1"><rect x="643" y="1840" width="269" height="269"/></clipPath><clipPath id="clip2"><rect x="643" y="1840" width="269" height="269"/></clipPath><clipPath id="clip3"><rect x="643" y="1840" width="269" height="269"/></clipPath></defs><g clip-path="url(#clip0)" transform="translate(-628 -286)"><path d="M1776.5 327.62C1776.5 306.015 1794.01 288.5 1815.62 288.5L3714.38 288.5C3735.98 288.5 3753.5 306.015 3753.5 327.62L3753.5 2206.38C3753.5 2227.99 3735.98 2245.5 3714.38 2245.5L1815.62 2245.5C1794.01 2245.5 1776.5 2227.99 1776.5 2206.38Z" stroke="#BFBFBF" stroke-width="4.58333" stroke-miterlimit="8" fill="none" fill-rule="evenodd"/><text fill="#7F7F7F" font-family="Segoe UI,Segoe UI_MSFontService,sans-serif" font-weight="400" font-size="55" transform="matrix(1 0 0 1 2628.12 2205)">Kubernetes</text><path d="M0 0 475.404 0.000360892" stroke="#A6A6A6" stroke-width="4.58333" stroke-miterlimit="8" fill="none" fill-rule="evenodd" transform="matrix(1 0 0 -1 2668.5 850.5)"/><path d="M2460.5 975.5 2460.5 1275.22" stroke="#A6A6A6" stroke-width="4.58333" stroke-miterlimit="8" fill="none" fill-rule="evenodd"/><path d="M2460.5 1525.5 2460.5 1825.22" stroke="#A6A6A6" stroke-width="4.58333" stroke-miterlimit="8" fill="none" fill-rule="evenodd"/><rect x="2252.5" y="1275.5" width="416" height="250" stroke="#FFFFFF" stroke-width="6.875" stroke-miterlimit="8" fill="#0D82AB"/><text fill="#FFFFFF" font-family="Segoe UI,Segoe UI_MSFontService,sans-serif" font-weight="400" font-size="55" transform="matrix(1 0 0 1 2356.56 1396)">Gateway<tspan font-size="41" x="-74.4104" y="52">(oauth2</tspan><tspan font-size="41" x="66.5271" y="52">-</tspan><tspan font-size="41" x="83.1416" y="52">proxy, etc.)</tspan></text><rect x="2252.5" y="1824.5" width="416" height="251" stroke="#FFFFFF" stroke-width="6.875" stroke-miterlimit="8" fill="#141D26"/><text fill="#FFFFFF" font-family="Segoe UI,Segoe UI_MSFontService,sans-serif" font-weight="400" font-size="55" transform="matrix(1 0 0 1 2350.61 1946)">Endpoint<tspan font-size="41" x="0.297852" y="52">(</tspan><tspan font-size="41" x="12.9021" y="52">istio</tspan><tspan font-size="41" x="87.9541" y="52">-</tspan><tspan font-size="41" x="104.569" y="52">proxy)</tspan></text><path d="M1964.5 1714.5 2412.17 1714.5 2429.5 1731.83 2429.5 1818.5 2429.5 1818.5 1981.83 1818.5 1964.5 1801.17 1964.5 1714.5Z" stroke="#FFFFFF" stroke-width="6.875" stroke-miterlimit="8" fill="#0D82AB" fill-rule="evenodd"/><text fill="#FFFFFF" font-family="Segoe UI,Segoe UI_MSFontService,sans-serif" font-weight="400" font-size="55" transform="matrix(1 0 0 1 2065.28 1787)">EnvoyFilter</text><rect x="2252.5" y="725.5" width="416" height="250" stroke="#FFFFFF" stroke-width="6.875" stroke-miterlimit="8" fill="#141D26"/><text fill="#FFFFFF" font-family="Segoe UI,Segoe UI_MSFontService,sans-serif" font-weight="400" font-size="55" transform="matrix(1 0 0 1 2354.35 871)">Keycloak</text><rect x="3144.5" y="725.5" width="417" height="250" stroke="#FFFFFF" stroke-width="6.875" stroke-miterlimit="8" fill="#141D26"/><text fill="#FFFFFF" font-family="Segoe UI,Segoe UI_MSFontService,sans-serif" font-weight="400" font-size="55" transform="matrix(1 0 0 1 3235.6 838)">Keycloak<tspan font-size="55" x="211.384" y="0">-</tspan><tspan font-size="55" x="7.3794" y="66">Operator</tspan></text><rect x="3144.5" y="1824.5" width="417" height="251" stroke="#FFFFFF" stroke-width="6.875" stroke-miterlimit="8" fill="#141D26"/><text fill="#FFFFFF" font-family="Segoe UI,Segoe UI_MSFontService,sans-serif" font-weight="400" font-size="55" transform="matrix(1 0 0 1 3225.56 1970)">Client App</text><path d="M1964.5 395.5 2412 395.5 2429.5 413.001 2429.5 500.5 2429.5 500.5 1982 500.5 1964.5 482.999 1964.5 395.5Z" stroke="#FFFFFF" stroke-width="6.875" stroke-miterlimit="8" fill="#0D82AB" fill-rule="evenodd"/><text fill="#FFFFFF" font-family="Segoe UI,Segoe UI_MSFontService,sans-serif" font-weight="400" font-size="55" transform="matrix(1 0 0 1 2016.7 468)">KeycloakRealm</text><path d="M1964.5 505.5 2412 505.5 2429.5 523.001 2429.5 610.5 2429.5 610.5 1982 610.5 1964.5 592.999 1964.5 505.5Z" stroke="#FFFFFF" stroke-width="6.875" stroke-miterlimit="8" fill="#0D82AB" fill-rule="evenodd"/><text fill="#FFFFFF" font-family="Segoe UI,Segoe UI_MSFontService,sans-serif" font-weight="400" font-size="55" transform="matrix(1 0 0 1 2031.11 578)">KeycloakClien</text><path d="M0 0 475.404 0.000360892" stroke="#A6A6A6" stroke-width="4.58333" stroke-miterlimit="8" fill="none" fill-rule="evenodd" transform="matrix(-1 0 0 1 3143.9 1949.5)"/><path d="M1964.5 615.5 2412 615.5 2429.5 633.001 2429.5 720.5 2429.5 720.5 1982 720.5 1964.5 702.999 1964.5 615.5Z" stroke="#FFFFFF" stroke-width="6.875" stroke-miterlimit="8" fill="#0D82AB" fill-rule="evenodd"/><text fill="#FFFFFF" font-family="Segoe UI,Segoe UI_MSFontService,sans-serif" font-weight="400" font-size="55" transform="matrix(1 0 0 1 2036.56 688)">KeycloakUser</text><rect x="943.5" y="1824.5" width="417" height="251" stroke="#FFFFFF" stroke-width="6.875" stroke-miterlimit="8" fill="#141D26"/><text fill="#FFFFFF" font-family="Segoe UI,Segoe UI_MSFontService,sans-serif" font-weight="400" font-size="55" transform="matrix(1 0 0 1 1055.01 1970)">Browser</text><path d="M2252.64 1949.5 1360.5 1949.5" stroke="#A6A6A6" stroke-width="4.58333" stroke-miterlimit="8" fill="none" fill-rule="evenodd"/><path d="M0 0 1100.5 0 1100.5 974.664" stroke="#A6A6A6" stroke-width="4.58333" stroke-miterlimit="8" fill="none" fill-rule="evenodd" transform="matrix(-1 1.22465e-16 1.22465e-16 1 2252 850.5)"/><g clip-path="url(#clip1)"><g clip-path="url(#clip2)"><g clip-path="url(#clip3)"><path d="M822.333 1924.06C822.333 1948.82 802.261 1968.9 777.5 1968.9 752.739 1968.9 732.667 1948.82 732.667 1924.06 732.667 1899.3 752.739 1879.23 777.5 1879.23 802.261 1879.23 822.333 1899.3 822.333 1924.06Z" fill="#141D26"/><path d="M867.167 2069.77 867.167 2024.94C867.167 2018.21 863.804 2011.49 858.2 2007 845.871 1996.92 830.179 1990.19 814.488 1985.71 803.279 1982.35 790.95 1980.1 777.5 1980.1 765.171 1980.1 752.842 1982.35 740.513 1985.71 724.821 1990.19 709.129 1998.04 696.8 2007 691.196 2011.49 687.833 2018.21 687.833 2024.94L687.833 2069.77 867.167 2069.77Z" fill="#141D26"/></g></g></g><text fill="#141D26" font-family="Segoe UI,Segoe UI_MSFontService,sans-serif" font-weight="400" font-size="55" transform="matrix(1 0 0 1 723.382 2129)">User</text><rect x="630.5" y="408.5" width="992" height="285" stroke="#7F7F7F" stroke-width="4.58333" stroke-miterlimit="8" stroke-dasharray="18.3333 13.75" fill="#FFFFFF"/><rect x="673.5" y="466.5" width="78" height="68.0001" stroke="#FFFFFF" stroke-width="6.875" stroke-miterlimit="8" fill="#0D82AB"/><text fill="#141D26" font-family="Segoe UI,Segoe UI_MSFontService,sans-serif" font-weight="400" font-size="55" transform="matrix(1 0 0 1 769.611 520)">Resources included in the chart</text><rect x="673.5" y="570.5" width="78" height="67" stroke="#FFFFFF" stroke-width="6.875" stroke-miterlimit="8" fill="#141D26"/><text fill="#141D26" font-family="Segoe UI,Segoe UI_MSFontService,sans-serif" font-weight="400" font-size="55" transform="matrix(1 0 0 1 769.611 624)">Resources for Prerequisites</text><rect x="1469" y="2048" width="582" height="74" fill="#BFBFBF"/><text fill="#141D26" font-family="Consolas,Consolas_MSFontService,sans-serif" font-weight="400" font-size="50" transform="matrix(1 0 0 1 1485.23 2103)">endpoint.frontendUrl<tspan font-family="Segoe UI,Segoe UI_MSFontService,sans-serif" font-size="55" x="-12.0757" y="-78">Access to </tspan></text><rect x="1036" y="1148" width="74.9999" height="582" fill="#BFBFBF"/><text fill="#141D26" font-family="Consolas,Consolas_MSFontService,sans-serif" font-weight="400" font-size="50" transform="matrix(-1.83697e-16 -1 1 -1.83697e-16 1091.29 1714)">keycloak.frontendUrl<tspan font-family="Arial,Arial_MSFontService,sans-serif" font-size="55" x="1" y="-78.9733">Access to </tspan></text></g></svg>